<mxfile host="app.diagrams.net" modified="2024-02-02T13:39:06.797Z" agent="Mozilla/5.0 (Macintosh; Intel Mac OS X 10_15_7) AppleWebKit/537.36 (KHTML, like Gecko) Chrome/120.0.0.0 Safari/537.36" etag="iOrzXZWoiyROlx1lbn5b" version="23.1.1" type="device">
  <diagram name="Page-1" id="r7K00GMMhrh-N15geoUs">
    <mxGraphModel dx="4085" dy="2700" grid="1" gridSize="10" guides="1" tooltips="1" connect="1" arrows="1" fold="1" page="1" pageScale="1" pageWidth="850" pageHeight="1100" math="0" shadow="0">
      <root>
        <mxCell id="0" />
        <mxCell id="1" parent="0" />
        <mxCell id="WMqFplSUwmNnNP5EuHun-1" value="users" style="rounded=0;whiteSpace=wrap;html=1;" parent="1" vertex="1">
          <mxGeometry x="180" y="260" width="100" height="50" as="geometry" />
        </mxCell>
        <mxCell id="WMqFplSUwmNnNP5EuHun-8" value="" style="endArrow=none;html=1;rounded=0;entryX=1;entryY=1;entryDx=0;entryDy=0;exitX=0.25;exitY=0;exitDx=0;exitDy=0;" parent="1" source="WMqFplSUwmNnNP5EuHun-1" target="WMqFplSUwmNnNP5EuHun-10" edge="1">
          <mxGeometry width="50" height="50" relative="1" as="geometry">
            <mxPoint x="250" y="230" as="sourcePoint" />
            <mxPoint x="240" y="190" as="targetPoint" />
          </mxGeometry>
        </mxCell>
        <mxCell id="WMqFplSUwmNnNP5EuHun-10" value="name" style="ellipse;whiteSpace=wrap;html=1;" parent="1" vertex="1">
          <mxGeometry x="90" y="120" width="100" height="50" as="geometry" />
        </mxCell>
        <mxCell id="WMqFplSUwmNnNP5EuHun-13" value="username" style="ellipse;whiteSpace=wrap;html=1;" parent="1" vertex="1">
          <mxGeometry y="150" width="100" height="50" as="geometry" />
        </mxCell>
        <mxCell id="WMqFplSUwmNnNP5EuHun-14" value="password" style="ellipse;whiteSpace=wrap;html=1;" parent="1" vertex="1">
          <mxGeometry x="-40" y="200" width="100" height="50" as="geometry" />
        </mxCell>
        <mxCell id="WMqFplSUwmNnNP5EuHun-16" value="email" style="ellipse;whiteSpace=wrap;html=1;" parent="1" vertex="1">
          <mxGeometry x="-10" y="320" width="100" height="50" as="geometry" />
        </mxCell>
        <mxCell id="WMqFplSUwmNnNP5EuHun-17" value="phone_number" style="ellipse;whiteSpace=wrap;html=1;" parent="1" vertex="1">
          <mxGeometry x="40" y="370" width="100" height="50" as="geometry" />
        </mxCell>
        <mxCell id="WMqFplSUwmNnNP5EuHun-18" value="address" style="ellipse;whiteSpace=wrap;html=1;" parent="1" vertex="1">
          <mxGeometry x="150" y="390" width="100" height="50" as="geometry" />
        </mxCell>
        <mxCell id="WMqFplSUwmNnNP5EuHun-23" value="roles" style="rounded=0;whiteSpace=wrap;html=1;" parent="1" vertex="1">
          <mxGeometry x="510" y="260" width="100" height="50" as="geometry" />
        </mxCell>
        <mxCell id="WMqFplSUwmNnNP5EuHun-25" value="role_name" style="ellipse;whiteSpace=wrap;html=1;" parent="1" vertex="1">
          <mxGeometry x="640" y="180" width="100" height="50" as="geometry" />
        </mxCell>
        <mxCell id="WMqFplSUwmNnNP5EuHun-26" value="role_id" style="ellipse;whiteSpace=wrap;html=1;" parent="1" vertex="1">
          <mxGeometry x="350" y="200" width="100" height="50" as="geometry" />
        </mxCell>
        <mxCell id="WMqFplSUwmNnNP5EuHun-28" value="has" style="rhombus;whiteSpace=wrap;html=1;" parent="1" vertex="1">
          <mxGeometry x="350" y="260" width="80" height="50" as="geometry" />
        </mxCell>
        <mxCell id="WMqFplSUwmNnNP5EuHun-30" value="" style="endArrow=none;html=1;rounded=0;exitX=0.5;exitY=1;exitDx=0;exitDy=0;entryX=0.75;entryY=0;entryDx=0;entryDy=0;" parent="1" source="WMqFplSUwmNnNP5EuHun-85" target="WMqFplSUwmNnNP5EuHun-1" edge="1">
          <mxGeometry width="50" height="50" relative="1" as="geometry">
            <mxPoint x="230" y="180" as="sourcePoint" />
            <mxPoint x="490" y="370" as="targetPoint" />
          </mxGeometry>
        </mxCell>
        <mxCell id="WMqFplSUwmNnNP5EuHun-34" value="" style="endArrow=none;html=1;rounded=0;exitX=0.25;exitY=1;exitDx=0;exitDy=0;entryX=0.732;entryY=-0.007;entryDx=0;entryDy=0;entryPerimeter=0;" parent="1" source="WMqFplSUwmNnNP5EuHun-1" target="WMqFplSUwmNnNP5EuHun-17" edge="1">
          <mxGeometry width="50" height="50" relative="1" as="geometry">
            <mxPoint x="300" y="490" as="sourcePoint" />
            <mxPoint x="490" y="370" as="targetPoint" />
          </mxGeometry>
        </mxCell>
        <mxCell id="WMqFplSUwmNnNP5EuHun-35" value="" style="endArrow=none;html=1;rounded=0;exitX=0.5;exitY=1;exitDx=0;exitDy=0;entryX=0.5;entryY=0;entryDx=0;entryDy=0;" parent="1" source="WMqFplSUwmNnNP5EuHun-1" target="WMqFplSUwmNnNP5EuHun-18" edge="1">
          <mxGeometry width="50" height="50" relative="1" as="geometry">
            <mxPoint x="440" y="420" as="sourcePoint" />
            <mxPoint x="490" y="370" as="targetPoint" />
          </mxGeometry>
        </mxCell>
        <mxCell id="WMqFplSUwmNnNP5EuHun-36" value="" style="endArrow=none;html=1;rounded=0;exitX=0;exitY=1;exitDx=0;exitDy=0;entryX=1;entryY=0.5;entryDx=0;entryDy=0;" parent="1" source="WMqFplSUwmNnNP5EuHun-1" target="WMqFplSUwmNnNP5EuHun-16" edge="1">
          <mxGeometry width="50" height="50" relative="1" as="geometry">
            <mxPoint x="440" y="420" as="sourcePoint" />
            <mxPoint x="490" y="370" as="targetPoint" />
          </mxGeometry>
        </mxCell>
        <mxCell id="WMqFplSUwmNnNP5EuHun-37" value="" style="endArrow=none;html=1;rounded=0;exitX=0;exitY=0.25;exitDx=0;exitDy=0;entryX=1;entryY=0.5;entryDx=0;entryDy=0;" parent="1" source="WMqFplSUwmNnNP5EuHun-1" target="WMqFplSUwmNnNP5EuHun-14" edge="1">
          <mxGeometry width="50" height="50" relative="1" as="geometry">
            <mxPoint x="440" y="420" as="sourcePoint" />
            <mxPoint x="490" y="370" as="targetPoint" />
          </mxGeometry>
        </mxCell>
        <mxCell id="WMqFplSUwmNnNP5EuHun-38" value="" style="endArrow=none;html=1;rounded=0;entryX=1;entryY=1;entryDx=0;entryDy=0;exitX=0;exitY=0;exitDx=0;exitDy=0;" parent="1" source="WMqFplSUwmNnNP5EuHun-1" target="WMqFplSUwmNnNP5EuHun-13" edge="1">
          <mxGeometry width="50" height="50" relative="1" as="geometry">
            <mxPoint x="190" y="270" as="sourcePoint" />
            <mxPoint x="490" y="370" as="targetPoint" />
          </mxGeometry>
        </mxCell>
        <mxCell id="WMqFplSUwmNnNP5EuHun-52" value="" style="fontSize=12;html=1;endArrow=ERoneToMany;rounded=0;entryX=1;entryY=0.5;entryDx=0;entryDy=0;exitX=0;exitY=0.5;exitDx=0;exitDy=0;" parent="1" source="WMqFplSUwmNnNP5EuHun-28" target="WMqFplSUwmNnNP5EuHun-1" edge="1">
          <mxGeometry width="100" height="100" relative="1" as="geometry">
            <mxPoint x="320" y="340" as="sourcePoint" />
            <mxPoint x="420" y="240" as="targetPoint" />
          </mxGeometry>
        </mxCell>
        <mxCell id="WMqFplSUwmNnNP5EuHun-58" value="" style="endArrow=none;html=1;rounded=0;entryX=1;entryY=0.25;entryDx=0;entryDy=0;exitX=0.075;exitY=0.81;exitDx=0;exitDy=0;exitPerimeter=0;" parent="1" source="WMqFplSUwmNnNP5EuHun-26" target="WMqFplSUwmNnNP5EuHun-1" edge="1">
          <mxGeometry width="50" height="50" relative="1" as="geometry">
            <mxPoint x="330" y="300" as="sourcePoint" />
            <mxPoint x="380" y="250" as="targetPoint" />
          </mxGeometry>
        </mxCell>
        <mxCell id="WMqFplSUwmNnNP5EuHun-59" value="" style="endArrow=none;html=1;rounded=0;exitX=0;exitY=0.5;exitDx=0;exitDy=0;entryX=1;entryY=0.5;entryDx=0;entryDy=0;" parent="1" source="WMqFplSUwmNnNP5EuHun-88" target="WMqFplSUwmNnNP5EuHun-23" edge="1">
          <mxGeometry width="50" height="50" relative="1" as="geometry">
            <mxPoint x="590" y="285" as="sourcePoint" />
            <mxPoint x="380" y="250" as="targetPoint" />
          </mxGeometry>
        </mxCell>
        <mxCell id="WMqFplSUwmNnNP5EuHun-60" value="" style="endArrow=none;html=1;rounded=0;exitX=0;exitY=1;exitDx=0;exitDy=0;entryX=1;entryY=0.25;entryDx=0;entryDy=0;" parent="1" source="WMqFplSUwmNnNP5EuHun-25" target="WMqFplSUwmNnNP5EuHun-23" edge="1">
          <mxGeometry width="50" height="50" relative="1" as="geometry">
            <mxPoint x="330" y="300" as="sourcePoint" />
            <mxPoint x="380" y="250" as="targetPoint" />
          </mxGeometry>
        </mxCell>
        <mxCell id="WMqFplSUwmNnNP5EuHun-61" value="categories" style="rounded=0;whiteSpace=wrap;html=1;" parent="1" vertex="1">
          <mxGeometry x="-530" y="280" width="100" height="50" as="geometry" />
        </mxCell>
        <mxCell id="WMqFplSUwmNnNP5EuHun-63" value="name" style="ellipse;whiteSpace=wrap;html=1;" parent="1" vertex="1">
          <mxGeometry x="-650" y="380" width="100" height="50" as="geometry" />
        </mxCell>
        <mxCell id="WMqFplSUwmNnNP5EuHun-64" value="" style="endArrow=none;html=1;rounded=0;entryX=0.77;entryY=0.971;entryDx=0;entryDy=0;entryPerimeter=0;exitX=1;exitY=1;exitDx=0;exitDy=0;" parent="1" source="WMqFplSUwmNnNP5EuHun-61" target="WMqFplSUwmNnNP5EuHun-82" edge="1">
          <mxGeometry width="50" height="50" relative="1" as="geometry">
            <mxPoint x="-90" y="810" as="sourcePoint" />
            <mxPoint x="-254.13603095705844" y="712.4196421065717" as="targetPoint" />
          </mxGeometry>
        </mxCell>
        <mxCell id="WMqFplSUwmNnNP5EuHun-65" value="" style="endArrow=none;html=1;rounded=0;exitX=0;exitY=0.75;exitDx=0;exitDy=0;entryX=1;entryY=0.5;entryDx=0;entryDy=0;" parent="1" source="WMqFplSUwmNnNP5EuHun-61" target="WMqFplSUwmNnNP5EuHun-63" edge="1">
          <mxGeometry width="50" height="50" relative="1" as="geometry">
            <mxPoint x="360" y="520" as="sourcePoint" />
            <mxPoint x="410" y="470" as="targetPoint" />
          </mxGeometry>
        </mxCell>
        <mxCell id="WMqFplSUwmNnNP5EuHun-66" value="products" style="rounded=0;whiteSpace=wrap;html=1;" parent="1" vertex="1">
          <mxGeometry x="-530" y="-130" width="100" height="50" as="geometry" />
        </mxCell>
        <mxCell id="WMqFplSUwmNnNP5EuHun-68" value="belong" style="rhombus;whiteSpace=wrap;html=1;" parent="1" vertex="1">
          <mxGeometry x="-520" y="130" width="80" height="50" as="geometry" />
        </mxCell>
        <mxCell id="WMqFplSUwmNnNP5EuHun-70" value="" style="fontSize=12;html=1;endArrow=ERmandOne;rounded=0;exitX=0.5;exitY=1;exitDx=0;exitDy=0;entryX=0.5;entryY=0;entryDx=0;entryDy=0;" parent="1" source="WMqFplSUwmNnNP5EuHun-68" target="WMqFplSUwmNnNP5EuHun-61" edge="1">
          <mxGeometry width="100" height="100" relative="1" as="geometry">
            <mxPoint x="-150" y="730" as="sourcePoint" />
            <mxPoint x="-480" y="320" as="targetPoint" />
          </mxGeometry>
        </mxCell>
        <mxCell id="WMqFplSUwmNnNP5EuHun-71" value="name" style="ellipse;whiteSpace=wrap;html=1;" parent="1" vertex="1">
          <mxGeometry x="-800" width="100" height="50" as="geometry" />
        </mxCell>
        <mxCell id="WMqFplSUwmNnNP5EuHun-72" value="price" style="ellipse;whiteSpace=wrap;html=1;" parent="1" vertex="1">
          <mxGeometry x="-610" y="60" width="100" height="50" as="geometry" />
        </mxCell>
        <mxCell id="WMqFplSUwmNnNP5EuHun-73" value="color" style="ellipse;whiteSpace=wrap;html=1;" parent="1" vertex="1">
          <mxGeometry x="-550" y="-350" width="100" height="50" as="geometry" />
        </mxCell>
        <mxCell id="WMqFplSUwmNnNP5EuHun-74" value="percent_discount" style="ellipse;whiteSpace=wrap;html=1;" parent="1" vertex="1">
          <mxGeometry x="-680" y="-330" width="100" height="50" as="geometry" />
        </mxCell>
        <mxCell id="WMqFplSUwmNnNP5EuHun-82" value="id" style="ellipse;whiteSpace=wrap;html=1;align=center;fontStyle=4;" parent="1" vertex="1">
          <mxGeometry x="-360" y="375" width="100" height="40" as="geometry" />
        </mxCell>
        <mxCell id="WMqFplSUwmNnNP5EuHun-84" value="id" style="ellipse;whiteSpace=wrap;html=1;align=center;fontStyle=4;" parent="1" vertex="1">
          <mxGeometry x="-290" y="-200" width="100" height="40" as="geometry" />
        </mxCell>
        <mxCell id="WMqFplSUwmNnNP5EuHun-85" value="id" style="ellipse;whiteSpace=wrap;html=1;align=center;fontStyle=4;" parent="1" vertex="1">
          <mxGeometry x="300" y="155" width="100" height="40" as="geometry" />
        </mxCell>
        <mxCell id="WMqFplSUwmNnNP5EuHun-88" value="id" style="ellipse;whiteSpace=wrap;html=1;align=center;fontStyle=4;" parent="1" vertex="1">
          <mxGeometry x="690" y="265" width="100" height="40" as="geometry" />
        </mxCell>
        <mxCell id="acyrxp5WxVUusTDhx1AF-2" value="image" style="ellipse;whiteSpace=wrap;html=1;" vertex="1" parent="1">
          <mxGeometry x="-360" y="50" width="100" height="50" as="geometry" />
        </mxCell>
        <mxCell id="acyrxp5WxVUusTDhx1AF-3" value="url" style="ellipse;whiteSpace=wrap;html=1;" vertex="1" parent="1">
          <mxGeometry x="-330" y="-270" width="100" height="50" as="geometry" />
        </mxCell>
        <mxCell id="acyrxp5WxVUusTDhx1AF-4" value="" style="endArrow=none;html=1;rounded=0;exitX=0;exitY=1;exitDx=0;exitDy=0;entryX=1;entryY=0;entryDx=0;entryDy=0;" edge="1" parent="1" source="WMqFplSUwmNnNP5EuHun-84" target="WMqFplSUwmNnNP5EuHun-66">
          <mxGeometry width="50" height="50" relative="1" as="geometry">
            <mxPoint x="270" y="620" as="sourcePoint" />
            <mxPoint x="320" y="570" as="targetPoint" />
          </mxGeometry>
        </mxCell>
        <mxCell id="acyrxp5WxVUusTDhx1AF-5" value="" style="endArrow=none;html=1;rounded=0;exitX=0;exitY=1;exitDx=0;exitDy=0;entryX=0.839;entryY=-0.025;entryDx=0;entryDy=0;entryPerimeter=0;" edge="1" parent="1" source="acyrxp5WxVUusTDhx1AF-3" target="WMqFplSUwmNnNP5EuHun-66">
          <mxGeometry width="50" height="50" relative="1" as="geometry">
            <mxPoint x="270" y="620" as="sourcePoint" />
            <mxPoint x="320" y="570" as="targetPoint" />
          </mxGeometry>
        </mxCell>
        <mxCell id="acyrxp5WxVUusTDhx1AF-6" value="" style="endArrow=none;html=1;rounded=0;exitX=0.62;exitY=1.038;exitDx=0;exitDy=0;entryX=0.25;entryY=0;entryDx=0;entryDy=0;exitPerimeter=0;" edge="1" parent="1" source="WMqFplSUwmNnNP5EuHun-73" target="WMqFplSUwmNnNP5EuHun-66">
          <mxGeometry width="50" height="50" relative="1" as="geometry">
            <mxPoint x="270" y="620" as="sourcePoint" />
            <mxPoint x="320" y="570" as="targetPoint" />
          </mxGeometry>
        </mxCell>
        <mxCell id="acyrxp5WxVUusTDhx1AF-7" value="" style="endArrow=none;html=1;rounded=0;entryX=1;entryY=1;entryDx=0;entryDy=0;exitX=0.043;exitY=0.023;exitDx=0;exitDy=0;exitPerimeter=0;" edge="1" parent="1" source="WMqFplSUwmNnNP5EuHun-66" target="WMqFplSUwmNnNP5EuHun-74">
          <mxGeometry width="50" height="50" relative="1" as="geometry">
            <mxPoint x="270" y="620" as="sourcePoint" />
            <mxPoint x="320" y="570" as="targetPoint" />
          </mxGeometry>
        </mxCell>
        <mxCell id="acyrxp5WxVUusTDhx1AF-8" value="" style="endArrow=none;html=1;rounded=0;entryX=0;entryY=0;entryDx=0;entryDy=0;exitX=0.75;exitY=1;exitDx=0;exitDy=0;" edge="1" parent="1" source="WMqFplSUwmNnNP5EuHun-66" target="acyrxp5WxVUusTDhx1AF-2">
          <mxGeometry width="50" height="50" relative="1" as="geometry">
            <mxPoint x="270" y="620" as="sourcePoint" />
            <mxPoint x="320" y="570" as="targetPoint" />
          </mxGeometry>
        </mxCell>
        <mxCell id="acyrxp5WxVUusTDhx1AF-9" value="" style="endArrow=none;html=1;rounded=0;entryX=1;entryY=0;entryDx=0;entryDy=0;exitX=0;exitY=1;exitDx=0;exitDy=0;" edge="1" parent="1" source="WMqFplSUwmNnNP5EuHun-66" target="WMqFplSUwmNnNP5EuHun-71">
          <mxGeometry width="50" height="50" relative="1" as="geometry">
            <mxPoint x="270" y="620" as="sourcePoint" />
            <mxPoint x="320" y="570" as="targetPoint" />
          </mxGeometry>
        </mxCell>
        <mxCell id="acyrxp5WxVUusTDhx1AF-10" value="" style="endArrow=none;html=1;rounded=0;entryX=0.717;entryY=-0.023;entryDx=0;entryDy=0;entryPerimeter=0;exitX=0.25;exitY=1;exitDx=0;exitDy=0;" edge="1" parent="1" source="WMqFplSUwmNnNP5EuHun-66" target="WMqFplSUwmNnNP5EuHun-72">
          <mxGeometry width="50" height="50" relative="1" as="geometry">
            <mxPoint x="270" y="620" as="sourcePoint" />
            <mxPoint x="320" y="570" as="targetPoint" />
          </mxGeometry>
        </mxCell>
        <mxCell id="acyrxp5WxVUusTDhx1AF-16" value="orders" style="rounded=0;whiteSpace=wrap;html=1;" vertex="1" parent="1">
          <mxGeometry x="410" y="520" width="100" height="50" as="geometry" />
        </mxCell>
        <mxCell id="acyrxp5WxVUusTDhx1AF-17" value="order" style="rhombus;whiteSpace=wrap;html=1;" vertex="1" parent="1">
          <mxGeometry x="420" y="400" width="80" height="50" as="geometry" />
        </mxCell>
        <mxCell id="acyrxp5WxVUusTDhx1AF-18" value="id" style="ellipse;whiteSpace=wrap;html=1;align=center;fontStyle=4;" vertex="1" parent="1">
          <mxGeometry x="510" y="470" width="100" height="40" as="geometry" />
        </mxCell>
        <mxCell id="acyrxp5WxVUusTDhx1AF-19" value="status" style="ellipse;whiteSpace=wrap;html=1;" vertex="1" parent="1">
          <mxGeometry x="540" y="520" width="100" height="50" as="geometry" />
        </mxCell>
        <mxCell id="acyrxp5WxVUusTDhx1AF-20" value="order_date" style="ellipse;whiteSpace=wrap;html=1;" vertex="1" parent="1">
          <mxGeometry x="510" y="580" width="100" height="50" as="geometry" />
        </mxCell>
        <mxCell id="acyrxp5WxVUusTDhx1AF-21" value="" style="fontSize=12;html=1;endArrow=ERmandOne;rounded=0;entryX=1;entryY=1;entryDx=0;entryDy=0;exitX=0.5;exitY=0;exitDx=0;exitDy=0;edgeStyle=orthogonalEdgeStyle;" edge="1" parent="1" source="acyrxp5WxVUusTDhx1AF-17" target="WMqFplSUwmNnNP5EuHun-1">
          <mxGeometry width="100" height="100" relative="1" as="geometry">
            <mxPoint x="390" y="480" as="sourcePoint" />
            <mxPoint x="320" y="480" as="targetPoint" />
          </mxGeometry>
        </mxCell>
        <mxCell id="acyrxp5WxVUusTDhx1AF-23" value="" style="endArrow=none;html=1;rounded=0;entryX=0;entryY=1;entryDx=0;entryDy=0;exitX=1;exitY=0;exitDx=0;exitDy=0;" edge="1" parent="1" source="acyrxp5WxVUusTDhx1AF-16" target="acyrxp5WxVUusTDhx1AF-18">
          <mxGeometry width="50" height="50" relative="1" as="geometry">
            <mxPoint x="250" y="550" as="sourcePoint" />
            <mxPoint x="410" y="510" as="targetPoint" />
          </mxGeometry>
        </mxCell>
        <mxCell id="acyrxp5WxVUusTDhx1AF-24" value="" style="endArrow=none;html=1;rounded=0;entryX=0;entryY=0.5;entryDx=0;entryDy=0;exitX=1;exitY=0.5;exitDx=0;exitDy=0;" edge="1" parent="1" source="acyrxp5WxVUusTDhx1AF-16" target="acyrxp5WxVUusTDhx1AF-19">
          <mxGeometry width="50" height="50" relative="1" as="geometry">
            <mxPoint x="360" y="630" as="sourcePoint" />
            <mxPoint x="410" y="580" as="targetPoint" />
          </mxGeometry>
        </mxCell>
        <mxCell id="acyrxp5WxVUusTDhx1AF-25" value="" style="endArrow=none;html=1;rounded=0;exitX=0.75;exitY=1;exitDx=0;exitDy=0;" edge="1" parent="1" source="acyrxp5WxVUusTDhx1AF-16" target="acyrxp5WxVUusTDhx1AF-20">
          <mxGeometry width="50" height="50" relative="1" as="geometry">
            <mxPoint x="360" y="630" as="sourcePoint" />
            <mxPoint x="410" y="580" as="targetPoint" />
          </mxGeometry>
        </mxCell>
        <mxCell id="acyrxp5WxVUusTDhx1AF-26" value="has" style="rhombus;whiteSpace=wrap;html=1;" vertex="1" parent="1">
          <mxGeometry x="420" y="630" width="80" height="50" as="geometry" />
        </mxCell>
        <mxCell id="acyrxp5WxVUusTDhx1AF-27" value="order_detail" style="rounded=0;whiteSpace=wrap;html=1;" vertex="1" parent="1">
          <mxGeometry x="410" y="730" width="100" height="50" as="geometry" />
        </mxCell>
        <mxCell id="acyrxp5WxVUusTDhx1AF-28" value="" style="fontSize=12;html=1;endArrow=ERmandOne;rounded=0;entryX=0.5;entryY=1;entryDx=0;entryDy=0;exitX=0.5;exitY=0;exitDx=0;exitDy=0;" edge="1" parent="1" source="acyrxp5WxVUusTDhx1AF-26" target="acyrxp5WxVUusTDhx1AF-16">
          <mxGeometry width="100" height="100" relative="1" as="geometry">
            <mxPoint x="360" y="680" as="sourcePoint" />
            <mxPoint x="430" y="610" as="targetPoint" />
          </mxGeometry>
        </mxCell>
        <mxCell id="acyrxp5WxVUusTDhx1AF-30" value="id" style="ellipse;whiteSpace=wrap;html=1;align=center;fontStyle=4;" vertex="1" parent="1">
          <mxGeometry x="270" y="730" width="100" height="40" as="geometry" />
        </mxCell>
        <mxCell id="acyrxp5WxVUusTDhx1AF-31" value="order_id" style="ellipse;whiteSpace=wrap;html=1;" vertex="1" parent="1">
          <mxGeometry x="270" y="780" width="100" height="50" as="geometry" />
        </mxCell>
        <mxCell id="acyrxp5WxVUusTDhx1AF-32" value="product_id" style="ellipse;whiteSpace=wrap;html=1;" vertex="1" parent="1">
          <mxGeometry x="340" y="830" width="100" height="50" as="geometry" />
        </mxCell>
        <mxCell id="acyrxp5WxVUusTDhx1AF-33" value="price" style="ellipse;whiteSpace=wrap;html=1;" vertex="1" parent="1">
          <mxGeometry x="450" y="840" width="100" height="50" as="geometry" />
        </mxCell>
        <mxCell id="acyrxp5WxVUusTDhx1AF-34" value="quantity" style="ellipse;whiteSpace=wrap;html=1;" vertex="1" parent="1">
          <mxGeometry x="525" y="790" width="100" height="50" as="geometry" />
        </mxCell>
        <mxCell id="acyrxp5WxVUusTDhx1AF-35" value="total_monney" style="ellipse;whiteSpace=wrap;html=1;" vertex="1" parent="1">
          <mxGeometry x="550" y="730" width="100" height="50" as="geometry" />
        </mxCell>
        <mxCell id="acyrxp5WxVUusTDhx1AF-36" value="" style="endArrow=none;html=1;rounded=0;exitX=1;exitY=0.7;exitDx=0;exitDy=0;exitPerimeter=0;" edge="1" parent="1" source="acyrxp5WxVUusTDhx1AF-30">
          <mxGeometry width="50" height="50" relative="1" as="geometry">
            <mxPoint x="380" y="810" as="sourcePoint" />
            <mxPoint x="410" y="760" as="targetPoint" />
          </mxGeometry>
        </mxCell>
        <mxCell id="acyrxp5WxVUusTDhx1AF-37" value="" style="endArrow=none;html=1;rounded=0;exitX=1;exitY=0.5;exitDx=0;exitDy=0;" edge="1" parent="1" source="acyrxp5WxVUusTDhx1AF-31">
          <mxGeometry width="50" height="50" relative="1" as="geometry">
            <mxPoint x="380" y="810" as="sourcePoint" />
            <mxPoint x="410" y="780" as="targetPoint" />
          </mxGeometry>
        </mxCell>
        <mxCell id="acyrxp5WxVUusTDhx1AF-38" value="" style="endArrow=none;html=1;rounded=0;entryX=0.25;entryY=1;entryDx=0;entryDy=0;exitX=0.61;exitY=-0.08;exitDx=0;exitDy=0;exitPerimeter=0;" edge="1" parent="1" source="acyrxp5WxVUusTDhx1AF-32" target="acyrxp5WxVUusTDhx1AF-27">
          <mxGeometry width="50" height="50" relative="1" as="geometry">
            <mxPoint x="380" y="810" as="sourcePoint" />
            <mxPoint x="430" y="760" as="targetPoint" />
          </mxGeometry>
        </mxCell>
        <mxCell id="acyrxp5WxVUusTDhx1AF-39" value="" style="endArrow=none;html=1;rounded=0;entryX=0.5;entryY=1;entryDx=0;entryDy=0;exitX=0.2;exitY=0;exitDx=0;exitDy=0;exitPerimeter=0;" edge="1" parent="1" source="acyrxp5WxVUusTDhx1AF-33" target="acyrxp5WxVUusTDhx1AF-27">
          <mxGeometry width="50" height="50" relative="1" as="geometry">
            <mxPoint x="380" y="810" as="sourcePoint" />
            <mxPoint x="430" y="760" as="targetPoint" />
          </mxGeometry>
        </mxCell>
        <mxCell id="acyrxp5WxVUusTDhx1AF-40" value="" style="endArrow=none;html=1;rounded=0;entryX=1;entryY=1;entryDx=0;entryDy=0;entryPerimeter=0;exitX=0.05;exitY=0.2;exitDx=0;exitDy=0;exitPerimeter=0;" edge="1" parent="1" source="acyrxp5WxVUusTDhx1AF-34" target="acyrxp5WxVUusTDhx1AF-27">
          <mxGeometry width="50" height="50" relative="1" as="geometry">
            <mxPoint x="380" y="810" as="sourcePoint" />
            <mxPoint x="430" y="760" as="targetPoint" />
          </mxGeometry>
        </mxCell>
        <mxCell id="acyrxp5WxVUusTDhx1AF-42" value="" style="endArrow=none;html=1;rounded=0;entryX=1;entryY=0.5;entryDx=0;entryDy=0;exitX=0;exitY=0.5;exitDx=0;exitDy=0;" edge="1" parent="1" source="acyrxp5WxVUusTDhx1AF-35" target="acyrxp5WxVUusTDhx1AF-27">
          <mxGeometry width="50" height="50" relative="1" as="geometry">
            <mxPoint x="380" y="810" as="sourcePoint" />
            <mxPoint x="430" y="760" as="targetPoint" />
          </mxGeometry>
        </mxCell>
        <mxCell id="acyrxp5WxVUusTDhx1AF-43" value="feedback" style="rhombus;whiteSpace=wrap;html=1;" vertex="1" parent="1">
          <mxGeometry x="190" y="60" width="80" height="50" as="geometry" />
        </mxCell>
        <mxCell id="acyrxp5WxVUusTDhx1AF-45" value="reviews" style="rounded=0;whiteSpace=wrap;html=1;" vertex="1" parent="1">
          <mxGeometry x="180" y="-130" width="100" height="50" as="geometry" />
        </mxCell>
        <mxCell id="acyrxp5WxVUusTDhx1AF-46" value="" style="fontSize=12;html=1;endArrow=ERmandOne;rounded=0;entryX=0.5;entryY=0;entryDx=0;entryDy=0;exitX=0.5;exitY=1;exitDx=0;exitDy=0;" edge="1" parent="1" source="acyrxp5WxVUusTDhx1AF-43" target="WMqFplSUwmNnNP5EuHun-1">
          <mxGeometry width="100" height="100" relative="1" as="geometry">
            <mxPoint x="320" y="80" as="sourcePoint" />
            <mxPoint x="320" y="150" as="targetPoint" />
          </mxGeometry>
        </mxCell>
        <mxCell id="acyrxp5WxVUusTDhx1AF-47" value="user_id" style="ellipse;whiteSpace=wrap;html=1;" vertex="1" parent="1">
          <mxGeometry x="50" y="-60" width="100" height="50" as="geometry" />
        </mxCell>
        <mxCell id="acyrxp5WxVUusTDhx1AF-48" value="id" style="ellipse;whiteSpace=wrap;html=1;align=center;fontStyle=4;" vertex="1" parent="1">
          <mxGeometry x="110" width="100" height="40" as="geometry" />
        </mxCell>
        <mxCell id="acyrxp5WxVUusTDhx1AF-50" value="comment" style="ellipse;whiteSpace=wrap;html=1;" vertex="1" parent="1">
          <mxGeometry x="10" y="-200" width="100" height="50" as="geometry" />
        </mxCell>
        <mxCell id="acyrxp5WxVUusTDhx1AF-51" value="stars" style="ellipse;whiteSpace=wrap;html=1;" vertex="1" parent="1">
          <mxGeometry x="120" y="-230" width="100" height="50" as="geometry" />
        </mxCell>
        <mxCell id="acyrxp5WxVUusTDhx1AF-52" value="status" style="ellipse;whiteSpace=wrap;html=1;" vertex="1" parent="1">
          <mxGeometry x="375" y="-160" width="100" height="50" as="geometry" />
        </mxCell>
        <mxCell id="acyrxp5WxVUusTDhx1AF-53" value="created_at" style="ellipse;whiteSpace=wrap;html=1;" vertex="1" parent="1">
          <mxGeometry x="390" y="-70" width="100" height="50" as="geometry" />
        </mxCell>
        <mxCell id="acyrxp5WxVUusTDhx1AF-54" value="updated_at" style="ellipse;whiteSpace=wrap;html=1;" vertex="1" parent="1">
          <mxGeometry x="270" y="-20" width="100" height="50" as="geometry" />
        </mxCell>
        <mxCell id="acyrxp5WxVUusTDhx1AF-55" value="" style="endArrow=none;html=1;rounded=0;exitX=0.713;exitY=0.018;exitDx=0;exitDy=0;entryX=0.25;entryY=1;entryDx=0;entryDy=0;exitPerimeter=0;" edge="1" parent="1" source="acyrxp5WxVUusTDhx1AF-48" target="acyrxp5WxVUusTDhx1AF-45">
          <mxGeometry width="50" height="50" relative="1" as="geometry">
            <mxPoint x="220" y="120" as="sourcePoint" />
            <mxPoint x="270" y="70" as="targetPoint" />
          </mxGeometry>
        </mxCell>
        <mxCell id="acyrxp5WxVUusTDhx1AF-56" value="" style="endArrow=none;html=1;rounded=0;exitX=0.986;exitY=0.352;exitDx=0;exitDy=0;entryX=0;entryY=1;entryDx=0;entryDy=0;exitPerimeter=0;" edge="1" parent="1" source="acyrxp5WxVUusTDhx1AF-47" target="acyrxp5WxVUusTDhx1AF-45">
          <mxGeometry width="50" height="50" relative="1" as="geometry">
            <mxPoint x="220" y="120" as="sourcePoint" />
            <mxPoint x="270" y="70" as="targetPoint" />
          </mxGeometry>
        </mxCell>
        <mxCell id="acyrxp5WxVUusTDhx1AF-57" value="" style="endArrow=none;html=1;rounded=0;exitX=1;exitY=1;exitDx=0;exitDy=0;entryX=0.104;entryY=-0.001;entryDx=0;entryDy=0;entryPerimeter=0;" edge="1" parent="1" source="acyrxp5WxVUusTDhx1AF-50" target="acyrxp5WxVUusTDhx1AF-45">
          <mxGeometry width="50" height="50" relative="1" as="geometry">
            <mxPoint x="220" y="120" as="sourcePoint" />
            <mxPoint x="270" y="70" as="targetPoint" />
          </mxGeometry>
        </mxCell>
        <mxCell id="acyrxp5WxVUusTDhx1AF-58" value="" style="endArrow=none;html=1;rounded=0;exitX=0.433;exitY=1.069;exitDx=0;exitDy=0;exitPerimeter=0;entryX=0.5;entryY=0;entryDx=0;entryDy=0;" edge="1" parent="1" source="acyrxp5WxVUusTDhx1AF-51" target="acyrxp5WxVUusTDhx1AF-45">
          <mxGeometry width="50" height="50" relative="1" as="geometry">
            <mxPoint x="220" y="120" as="sourcePoint" />
            <mxPoint x="270" y="70" as="targetPoint" />
          </mxGeometry>
        </mxCell>
        <mxCell id="acyrxp5WxVUusTDhx1AF-59" value="" style="endArrow=none;html=1;rounded=0;exitX=1;exitY=0;exitDx=0;exitDy=0;entryX=0.051;entryY=0.74;entryDx=0;entryDy=0;entryPerimeter=0;" edge="1" parent="1" source="acyrxp5WxVUusTDhx1AF-45" target="acyrxp5WxVUusTDhx1AF-52">
          <mxGeometry width="50" height="50" relative="1" as="geometry">
            <mxPoint x="220" y="120" as="sourcePoint" />
            <mxPoint x="270" y="70" as="targetPoint" />
          </mxGeometry>
        </mxCell>
        <mxCell id="acyrxp5WxVUusTDhx1AF-60" value="" style="endArrow=none;html=1;rounded=0;exitX=1;exitY=0.75;exitDx=0;exitDy=0;entryX=0;entryY=0.5;entryDx=0;entryDy=0;" edge="1" parent="1" source="acyrxp5WxVUusTDhx1AF-45" target="acyrxp5WxVUusTDhx1AF-53">
          <mxGeometry width="50" height="50" relative="1" as="geometry">
            <mxPoint x="220" y="120" as="sourcePoint" />
            <mxPoint x="270" y="70" as="targetPoint" />
          </mxGeometry>
        </mxCell>
        <mxCell id="acyrxp5WxVUusTDhx1AF-61" value="" style="endArrow=none;html=1;rounded=0;exitX=0.88;exitY=1.058;exitDx=0;exitDy=0;exitPerimeter=0;entryX=0;entryY=0;entryDx=0;entryDy=0;" edge="1" parent="1" source="acyrxp5WxVUusTDhx1AF-45" target="acyrxp5WxVUusTDhx1AF-54">
          <mxGeometry width="50" height="50" relative="1" as="geometry">
            <mxPoint x="220" y="120" as="sourcePoint" />
            <mxPoint x="270" y="70" as="targetPoint" />
          </mxGeometry>
        </mxCell>
        <mxCell id="acyrxp5WxVUusTDhx1AF-68" value="brand" style="ellipse;whiteSpace=wrap;html=1;" vertex="1" parent="1">
          <mxGeometry x="-270" y="-80" width="100" height="50" as="geometry" />
        </mxCell>
        <mxCell id="acyrxp5WxVUusTDhx1AF-69" value="" style="endArrow=none;html=1;rounded=0;exitX=0;exitY=0.5;exitDx=0;exitDy=0;entryX=1;entryY=0.5;entryDx=0;entryDy=0;" edge="1" parent="1" source="acyrxp5WxVUusTDhx1AF-68" target="WMqFplSUwmNnNP5EuHun-66">
          <mxGeometry width="50" height="50" relative="1" as="geometry">
            <mxPoint x="117" y="499" as="sourcePoint" />
            <mxPoint x="110" y="560" as="targetPoint" />
          </mxGeometry>
        </mxCell>
        <mxCell id="acyrxp5WxVUusTDhx1AF-72" value="status" style="ellipse;whiteSpace=wrap;html=1;" vertex="1" parent="1">
          <mxGeometry x="250" y="370" width="100" height="50" as="geometry" />
        </mxCell>
        <mxCell id="acyrxp5WxVUusTDhx1AF-73" value="" style="endArrow=none;html=1;rounded=0;exitX=0.576;exitY=1.067;exitDx=0;exitDy=0;exitPerimeter=0;entryX=0.271;entryY=0.046;entryDx=0;entryDy=0;entryPerimeter=0;" edge="1" parent="1" source="WMqFplSUwmNnNP5EuHun-1" target="acyrxp5WxVUusTDhx1AF-72">
          <mxGeometry width="50" height="50" relative="1" as="geometry">
            <mxPoint x="260" y="440" as="sourcePoint" />
            <mxPoint x="310" y="390" as="targetPoint" />
          </mxGeometry>
        </mxCell>
        <mxCell id="acyrxp5WxVUusTDhx1AF-74" value="category_id" style="ellipse;whiteSpace=wrap;html=1;" vertex="1" parent="1">
          <mxGeometry x="-270" width="100" height="50" as="geometry" />
        </mxCell>
        <mxCell id="acyrxp5WxVUusTDhx1AF-75" value="" style="endArrow=none;html=1;rounded=0;exitX=1;exitY=0.75;exitDx=0;exitDy=0;" edge="1" parent="1" source="WMqFplSUwmNnNP5EuHun-66" target="acyrxp5WxVUusTDhx1AF-74">
          <mxGeometry width="50" height="50" relative="1" as="geometry">
            <mxPoint x="80" y="550" as="sourcePoint" />
            <mxPoint x="130" y="500" as="targetPoint" />
          </mxGeometry>
        </mxCell>
        <mxCell id="acyrxp5WxVUusTDhx1AF-76" value="user_id" style="ellipse;whiteSpace=wrap;html=1;" vertex="1" parent="1">
          <mxGeometry x="300" y="470" width="100" height="50" as="geometry" />
        </mxCell>
        <mxCell id="acyrxp5WxVUusTDhx1AF-79" value="" style="endArrow=none;html=1;rounded=0;exitX=1;exitY=1;exitDx=0;exitDy=0;entryX=0;entryY=0;entryDx=0;entryDy=0;" edge="1" parent="1" source="acyrxp5WxVUusTDhx1AF-76" target="acyrxp5WxVUusTDhx1AF-16">
          <mxGeometry width="50" height="50" relative="1" as="geometry">
            <mxPoint x="380" y="550" as="sourcePoint" />
            <mxPoint x="420" y="510" as="targetPoint" />
          </mxGeometry>
        </mxCell>
        <mxCell id="acyrxp5WxVUusTDhx1AF-83" value="gender" style="ellipse;whiteSpace=wrap;html=1;" vertex="1" parent="1">
          <mxGeometry x="-40" y="265" width="100" height="50" as="geometry" />
        </mxCell>
        <mxCell id="acyrxp5WxVUusTDhx1AF-84" value="" style="endArrow=none;html=1;rounded=0;entryX=0;entryY=0.5;entryDx=0;entryDy=0;exitX=1;exitY=0.5;exitDx=0;exitDy=0;" edge="1" parent="1" source="acyrxp5WxVUusTDhx1AF-83" target="WMqFplSUwmNnNP5EuHun-1">
          <mxGeometry width="50" height="50" relative="1" as="geometry">
            <mxPoint x="120" y="310" as="sourcePoint" />
            <mxPoint x="170" y="260" as="targetPoint" />
          </mxGeometry>
        </mxCell>
        <mxCell id="acyrxp5WxVUusTDhx1AF-85" value="product_id" style="ellipse;whiteSpace=wrap;html=1;" vertex="1" parent="1">
          <mxGeometry x="270" y="-220" width="100" height="50" as="geometry" />
        </mxCell>
        <mxCell id="acyrxp5WxVUusTDhx1AF-86" value="" style="endArrow=none;html=1;rounded=0;entryX=0.5;entryY=1;entryDx=0;entryDy=0;exitX=0.844;exitY=-0.069;exitDx=0;exitDy=0;exitPerimeter=0;" edge="1" parent="1" source="acyrxp5WxVUusTDhx1AF-45" target="acyrxp5WxVUusTDhx1AF-85">
          <mxGeometry width="50" height="50" relative="1" as="geometry">
            <mxPoint x="220" y="20" as="sourcePoint" />
            <mxPoint x="270" y="-30" as="targetPoint" />
          </mxGeometry>
        </mxCell>
        <mxCell id="acyrxp5WxVUusTDhx1AF-87" value="has" style="rhombus;whiteSpace=wrap;html=1;" vertex="1" parent="1">
          <mxGeometry x="-190" y="-130" width="80" height="50" as="geometry" />
        </mxCell>
        <mxCell id="acyrxp5WxVUusTDhx1AF-89" value="" style="fontSize=12;html=1;endArrow=ERmandOne;rounded=0;entryX=1;entryY=0.5;entryDx=0;entryDy=0;exitX=0;exitY=0.5;exitDx=0;exitDy=0;" edge="1" parent="1" source="acyrxp5WxVUusTDhx1AF-87" target="WMqFplSUwmNnNP5EuHun-66">
          <mxGeometry width="100" height="100" relative="1" as="geometry">
            <mxPoint x="-80" y="350" as="sourcePoint" />
            <mxPoint x="20" y="250" as="targetPoint" />
          </mxGeometry>
        </mxCell>
        <mxCell id="acyrxp5WxVUusTDhx1AF-90" value="" style="fontSize=12;html=1;endArrow=ERoneToMany;rounded=0;entryX=0;entryY=0.5;entryDx=0;entryDy=0;exitX=1;exitY=0.5;exitDx=0;exitDy=0;" edge="1" parent="1" source="acyrxp5WxVUusTDhx1AF-87" target="acyrxp5WxVUusTDhx1AF-45">
          <mxGeometry width="100" height="100" relative="1" as="geometry">
            <mxPoint x="10" y="190" as="sourcePoint" />
            <mxPoint x="110" y="90" as="targetPoint" />
          </mxGeometry>
        </mxCell>
        <mxCell id="acyrxp5WxVUusTDhx1AF-91" value="" style="fontSize=12;html=1;endArrow=ERoneToMany;rounded=0;entryX=0.5;entryY=1;entryDx=0;entryDy=0;exitX=0.5;exitY=0;exitDx=0;exitDy=0;" edge="1" parent="1" source="WMqFplSUwmNnNP5EuHun-68" target="WMqFplSUwmNnNP5EuHun-66">
          <mxGeometry width="100" height="100" relative="1" as="geometry">
            <mxPoint x="-60" y="660" as="sourcePoint" />
            <mxPoint x="40" y="560" as="targetPoint" />
          </mxGeometry>
        </mxCell>
        <mxCell id="acyrxp5WxVUusTDhx1AF-93" value="" style="fontSize=12;html=1;endArrow=ERoneToMany;rounded=0;entryX=0.5;entryY=0;entryDx=0;entryDy=0;exitX=0.5;exitY=1;exitDx=0;exitDy=0;" edge="1" parent="1" source="acyrxp5WxVUusTDhx1AF-26" target="acyrxp5WxVUusTDhx1AF-27">
          <mxGeometry width="100" height="100" relative="1" as="geometry">
            <mxPoint x="340" y="620" as="sourcePoint" />
            <mxPoint x="440" y="520" as="targetPoint" />
          </mxGeometry>
        </mxCell>
        <mxCell id="acyrxp5WxVUusTDhx1AF-94" value="" style="fontSize=12;html=1;endArrow=ERoneToMany;rounded=0;exitX=0.5;exitY=1;exitDx=0;exitDy=0;" edge="1" parent="1" source="acyrxp5WxVUusTDhx1AF-17">
          <mxGeometry width="100" height="100" relative="1" as="geometry">
            <mxPoint x="470" y="690" as="sourcePoint" />
            <mxPoint x="460" y="520" as="targetPoint" />
          </mxGeometry>
        </mxCell>
        <mxCell id="acyrxp5WxVUusTDhx1AF-95" value="" style="fontSize=12;html=1;endArrow=ERoneToMany;rounded=0;entryX=0.5;entryY=1;entryDx=0;entryDy=0;exitX=0.5;exitY=0;exitDx=0;exitDy=0;" edge="1" parent="1" source="acyrxp5WxVUusTDhx1AF-43" target="acyrxp5WxVUusTDhx1AF-45">
          <mxGeometry width="100" height="100" relative="1" as="geometry">
            <mxPoint x="200" y="190" as="sourcePoint" />
            <mxPoint x="300" y="90" as="targetPoint" />
          </mxGeometry>
        </mxCell>
        <mxCell id="acyrxp5WxVUusTDhx1AF-96" value="" style="fontSize=12;html=1;endArrow=ERmandOne;rounded=0;entryX=0;entryY=0.5;entryDx=0;entryDy=0;exitX=1;exitY=0.5;exitDx=0;exitDy=0;" edge="1" parent="1" source="WMqFplSUwmNnNP5EuHun-28" target="WMqFplSUwmNnNP5EuHun-23">
          <mxGeometry width="100" height="100" relative="1" as="geometry">
            <mxPoint x="430" y="290" as="sourcePoint" />
            <mxPoint x="300" y="220" as="targetPoint" />
          </mxGeometry>
        </mxCell>
        <mxCell id="acyrxp5WxVUusTDhx1AF-97" value="screen_size" style="ellipse;whiteSpace=wrap;html=1;" vertex="1" parent="1">
          <mxGeometry x="-840" y="-50" width="100" height="50" as="geometry" />
        </mxCell>
        <mxCell id="acyrxp5WxVUusTDhx1AF-98" value="screen_technology" style="ellipse;whiteSpace=wrap;html=1;" vertex="1" parent="1">
          <mxGeometry x="-820" y="-200" width="110" height="50" as="geometry" />
        </mxCell>
        <mxCell id="acyrxp5WxVUusTDhx1AF-99" value="chipset" style="ellipse;whiteSpace=wrap;html=1;" vertex="1" parent="1">
          <mxGeometry x="-720" y="50" width="100" height="50" as="geometry" />
        </mxCell>
        <mxCell id="acyrxp5WxVUusTDhx1AF-100" value="ram" style="ellipse;whiteSpace=wrap;html=1;" vertex="1" parent="1">
          <mxGeometry x="-770" y="-280" width="100" height="50" as="geometry" />
        </mxCell>
        <mxCell id="acyrxp5WxVUusTDhx1AF-101" value="internal_memory" style="ellipse;whiteSpace=wrap;html=1;" vertex="1" parent="1">
          <mxGeometry x="-430" y="-330" width="100" height="50" as="geometry" />
        </mxCell>
        <mxCell id="acyrxp5WxVUusTDhx1AF-102" value="battery" style="ellipse;whiteSpace=wrap;html=1;" vertex="1" parent="1">
          <mxGeometry x="-470" y="70" width="100" height="50" as="geometry" />
        </mxCell>
        <mxCell id="acyrxp5WxVUusTDhx1AF-104" value="" style="endArrow=none;html=1;rounded=0;entryX=0.5;entryY=1;entryDx=0;entryDy=0;exitX=0.75;exitY=0;exitDx=0;exitDy=0;" edge="1" parent="1" source="WMqFplSUwmNnNP5EuHun-66" target="acyrxp5WxVUusTDhx1AF-101">
          <mxGeometry width="50" height="50" relative="1" as="geometry">
            <mxPoint x="-949.7000000000003" y="-133.3499999999999" as="sourcePoint" />
            <mxPoint x="-450" y="580" as="targetPoint" />
          </mxGeometry>
        </mxCell>
        <mxCell id="acyrxp5WxVUusTDhx1AF-105" value="" style="endArrow=none;html=1;rounded=0;entryX=1;entryY=1;entryDx=0;entryDy=0;exitX=-0.025;exitY=0.097;exitDx=0;exitDy=0;exitPerimeter=0;" edge="1" parent="1" source="WMqFplSUwmNnNP5EuHun-66" target="acyrxp5WxVUusTDhx1AF-100">
          <mxGeometry width="50" height="50" relative="1" as="geometry">
            <mxPoint x="-985" y="-130" as="sourcePoint" />
            <mxPoint x="-420" y="600" as="targetPoint" />
          </mxGeometry>
        </mxCell>
        <mxCell id="acyrxp5WxVUusTDhx1AF-106" value="" style="endArrow=none;html=1;rounded=0;entryX=0.945;entryY=0.751;entryDx=0;entryDy=0;entryPerimeter=0;exitX=0;exitY=0.25;exitDx=0;exitDy=0;" edge="1" parent="1" source="WMqFplSUwmNnNP5EuHun-66" target="acyrxp5WxVUusTDhx1AF-98">
          <mxGeometry width="50" height="50" relative="1" as="geometry">
            <mxPoint x="-610" y="570" as="sourcePoint" />
            <mxPoint x="-420" y="600" as="targetPoint" />
          </mxGeometry>
        </mxCell>
        <mxCell id="acyrxp5WxVUusTDhx1AF-107" value="" style="endArrow=none;html=1;rounded=0;entryX=1;entryY=0.5;entryDx=0;entryDy=0;exitX=0;exitY=0.75;exitDx=0;exitDy=0;" edge="1" parent="1" source="WMqFplSUwmNnNP5EuHun-66" target="acyrxp5WxVUusTDhx1AF-97">
          <mxGeometry width="50" height="50" relative="1" as="geometry">
            <mxPoint x="-1010" y="-92" as="sourcePoint" />
            <mxPoint x="-420" y="600" as="targetPoint" />
          </mxGeometry>
        </mxCell>
        <mxCell id="acyrxp5WxVUusTDhx1AF-108" value="" style="endArrow=none;html=1;rounded=0;entryX=1;entryY=0;entryDx=0;entryDy=0;exitX=0.128;exitY=1.023;exitDx=0;exitDy=0;exitPerimeter=0;" edge="1" parent="1" source="WMqFplSUwmNnNP5EuHun-66" target="acyrxp5WxVUusTDhx1AF-99">
          <mxGeometry width="50" height="50" relative="1" as="geometry">
            <mxPoint x="-990.5999999999999" y="-77" as="sourcePoint" />
            <mxPoint x="-420" y="600" as="targetPoint" />
          </mxGeometry>
        </mxCell>
        <mxCell id="acyrxp5WxVUusTDhx1AF-110" value="" style="endArrow=none;html=1;rounded=0;entryX=0.5;entryY=1;entryDx=0;entryDy=0;exitX=0.23;exitY=0.024;exitDx=0;exitDy=0;exitPerimeter=0;" edge="1" parent="1" source="acyrxp5WxVUusTDhx1AF-102" target="WMqFplSUwmNnNP5EuHun-66">
          <mxGeometry width="50" height="50" relative="1" as="geometry">
            <mxPoint x="-470" y="650" as="sourcePoint" />
            <mxPoint x="-935" y="-80" as="targetPoint" />
          </mxGeometry>
        </mxCell>
        <mxCell id="acyrxp5WxVUusTDhx1AF-114" value="cart" style="rounded=0;whiteSpace=wrap;html=1;" vertex="1" parent="1">
          <mxGeometry x="-1100" y="-130" width="100" height="50" as="geometry" />
        </mxCell>
        <mxCell id="acyrxp5WxVUusTDhx1AF-116" value="id" style="ellipse;whiteSpace=wrap;html=1;align=center;fontStyle=4;" vertex="1" parent="1">
          <mxGeometry x="-1070" y="-230" width="100" height="40" as="geometry" />
        </mxCell>
        <mxCell id="acyrxp5WxVUusTDhx1AF-117" value="product_id" style="ellipse;whiteSpace=wrap;html=1;" vertex="1" parent="1">
          <mxGeometry x="-1250" y="-260" width="100" height="50" as="geometry" />
        </mxCell>
        <mxCell id="acyrxp5WxVUusTDhx1AF-118" value="has" style="rhombus;whiteSpace=wrap;html=1;" vertex="1" parent="1">
          <mxGeometry x="-910" y="-130" width="80" height="50" as="geometry" />
        </mxCell>
        <mxCell id="acyrxp5WxVUusTDhx1AF-119" value="quantity" style="ellipse;whiteSpace=wrap;html=1;" vertex="1" parent="1">
          <mxGeometry x="-1310" y="-140" width="100" height="50" as="geometry" />
        </mxCell>
        <mxCell id="acyrxp5WxVUusTDhx1AF-120" value="total" style="ellipse;whiteSpace=wrap;html=1;" vertex="1" parent="1">
          <mxGeometry x="-1230" y="-30" width="100" height="50" as="geometry" />
        </mxCell>
        <mxCell id="acyrxp5WxVUusTDhx1AF-121" value="" style="endArrow=none;html=1;rounded=0;entryX=0.803;entryY=0.96;entryDx=0;entryDy=0;entryPerimeter=0;exitX=0.5;exitY=0;exitDx=0;exitDy=0;" edge="1" parent="1" source="acyrxp5WxVUusTDhx1AF-114" target="acyrxp5WxVUusTDhx1AF-117">
          <mxGeometry width="50" height="50" relative="1" as="geometry">
            <mxPoint x="-1020" y="-50" as="sourcePoint" />
            <mxPoint x="-970" y="-100" as="targetPoint" />
          </mxGeometry>
        </mxCell>
        <mxCell id="acyrxp5WxVUusTDhx1AF-122" value="" style="endArrow=none;html=1;rounded=0;entryX=0.43;entryY=1.064;entryDx=0;entryDy=0;entryPerimeter=0;exitX=1;exitY=0;exitDx=0;exitDy=0;" edge="1" parent="1" source="acyrxp5WxVUusTDhx1AF-114" target="acyrxp5WxVUusTDhx1AF-116">
          <mxGeometry width="50" height="50" relative="1" as="geometry">
            <mxPoint x="-1020" y="-50" as="sourcePoint" />
            <mxPoint x="-970" y="-100" as="targetPoint" />
          </mxGeometry>
        </mxCell>
        <mxCell id="acyrxp5WxVUusTDhx1AF-123" value="" style="endArrow=none;html=1;rounded=0;entryX=0.575;entryY=1.015;entryDx=0;entryDy=0;entryPerimeter=0;exitX=1;exitY=0;exitDx=0;exitDy=0;" edge="1" parent="1" source="acyrxp5WxVUusTDhx1AF-120" target="acyrxp5WxVUusTDhx1AF-114">
          <mxGeometry width="50" height="50" relative="1" as="geometry">
            <mxPoint x="-1020" y="-50" as="sourcePoint" />
            <mxPoint x="-970" y="-100" as="targetPoint" />
          </mxGeometry>
        </mxCell>
        <mxCell id="acyrxp5WxVUusTDhx1AF-124" value="" style="endArrow=none;html=1;rounded=0;entryX=1.012;entryY=0.687;entryDx=0;entryDy=0;entryPerimeter=0;exitX=0;exitY=0.5;exitDx=0;exitDy=0;" edge="1" parent="1" source="acyrxp5WxVUusTDhx1AF-114" target="acyrxp5WxVUusTDhx1AF-119">
          <mxGeometry width="50" height="50" relative="1" as="geometry">
            <mxPoint x="-1180" y="-100" as="sourcePoint" />
            <mxPoint x="-970" y="-100" as="targetPoint" />
          </mxGeometry>
        </mxCell>
        <mxCell id="acyrxp5WxVUusTDhx1AF-125" value="" style="edgeStyle=entityRelationEdgeStyle;fontSize=12;html=1;endArrow=ERoneToMany;rounded=0;entryX=0;entryY=0.5;entryDx=0;entryDy=0;exitX=1;exitY=0.5;exitDx=0;exitDy=0;" edge="1" parent="1" source="acyrxp5WxVUusTDhx1AF-118" target="WMqFplSUwmNnNP5EuHun-66">
          <mxGeometry width="100" height="100" relative="1" as="geometry">
            <mxPoint x="-950" y="-30" as="sourcePoint" />
            <mxPoint x="-850" y="-130" as="targetPoint" />
          </mxGeometry>
        </mxCell>
        <mxCell id="acyrxp5WxVUusTDhx1AF-126" value="" style="fontSize=12;html=1;endArrow=ERmandOne;rounded=0;entryX=1;entryY=0.5;entryDx=0;entryDy=0;exitX=0;exitY=0.5;exitDx=0;exitDy=0;" edge="1" parent="1" source="acyrxp5WxVUusTDhx1AF-118" target="acyrxp5WxVUusTDhx1AF-114">
          <mxGeometry width="100" height="100" relative="1" as="geometry">
            <mxPoint x="-950" y="-30" as="sourcePoint" />
            <mxPoint x="-850" y="-130" as="targetPoint" />
          </mxGeometry>
        </mxCell>
      </root>
    </mxGraphModel>
  </diagram>
</mxfile>
